<?xml version="1.0" encoding="UTF-8"?>
<svg width="44px" height="44px" viewBox="0 0 44 44" version="1.1" xmlns="http://www.w3.org/2000/svg" xmlns:xlink="http://www.w3.org/1999/xlink">
    <!-- Generator: Sketch 48.2 (47327) - http://www.bohemiancoding.com/sketch -->
    <title>apple_alone</title>
    <desc>Created with Sketch.</desc>
    <defs></defs>
    <g id="Symbols" stroke="none" stroke-width="1" fill="none" fill-rule="evenodd">
        <g id="apple_alone">
            <g id="Group-3" transform="translate(10.000000, 6.000000)" fill="#FFFFFF" fill-rule="nonzero">
                <path d="M18.3902954,14.4127795 C18.3595319,11.0525053 21.1897717,9.4177209 21.3191905,9.34161168 C19.7163073,7.04478138 17.2318914,6.73096117 16.3588451,6.70593896 C14.2722328,6.4901224 12.2482082,7.93306981 11.1852771,7.93306981 C10.1011298,7.93306981 8.46430066,6.7267908 6.70017442,6.76223893 C4.43004203,6.79664447 2.30630137,8.08841603 1.14153251,10.0943632 C-1.26226187,14.1844518 0.530506224,20.194995 2.8335237,23.5000119 C3.98556284,25.1191573 5.33173013,26.927012 7.09373475,26.8644564 C8.81755023,26.7935602 9.46146161,25.7832885 11.5417091,25.7832885 C13.602862,25.7832885 14.2075234,26.8644564 16.0045348,26.8237953 C17.8545866,26.7935602 19.0193554,25.1963091 20.1310838,23.56361 C21.4623998,21.7067535 21.9970478,19.8801322 22.0182639,19.7862989 C21.9747708,19.7717026 18.4253021,18.43927 18.3902954,14.4127795 Z" id="Shape"></path>
                <path d="M14.9620866,4.96403606 C15.8892342,3.82448294 16.5235983,2.27414855 16.3475039,0.700877133 C15.0055798,0.759262288 13.3273792,1.61314518 12.3609817,2.7276761 C11.5059692,3.70979782 10.7421863,5.31955996 10.9394969,6.83340363 C12.4469073,6.94391838 13.9946284,6.08586512 14.9620866,4.96403606 Z" id="Shape"></path>
            </g>
            <g id="apple_logo">
                <g id="facebook-copy">
                    <rect id="Rectangle" x="0" y="0" width="44" height="44"></rect>
                    <circle id="Oval" stroke="#FFFFFF" stroke-width="2" cx="22" cy="22" r="21"></circle>
                </g>
            </g>
        </g>
    </g>
</svg>