<?xml version="1.0" encoding="UTF-8"?>
<svg width="64px" height="64px" viewBox="0 0 64 64" version="1.1" xmlns="http://www.w3.org/2000/svg" xmlns:xlink="http://www.w3.org/1999/xlink">
    <!-- Generator: Sketch 49.3 (51167) - http://www.bohemiancoding.com/sketch -->
    <title>02</title>
    <desc>Created with Sketch.</desc>
    <defs></defs>
    <g id="Page-1" stroke="none" stroke-width="1" fill="none" fill-rule="evenodd">
        <g id="Portada" transform="translate(-688.000000, -683.000000)" fill="#4A90E2">
            <path d="M720,683 C711.452,683 703.416,686.329 697.373,692.373 C691.329,698.417 688,706.452 688,714.999 C688,723.547 691.329,731.582 697.373,737.625 C703.416,743.67 711.452,746.999 720,746.999 C728.548,746.999 736.583,743.67 742.625,737.626 C748.67,731.582 752,723.547 752,714.999 C752,706.452 748.67,698.417 742.626,692.374 C736.583,686.329 728.548,683 720,683 L720,683 Z M739.797,734.797 C734.509,740.086 727.479,742.999 720,742.999 C712.52,742.999 705.49,740.086 700.201,734.797 C694.913,729.509 692,722.478 692,714.999 C692,707.521 694.913,700.49 700.202,695.202 C705.49,689.913 712.52,687 720,687 C727.479,687 734.509,689.913 739.797,695.202 C745.087,700.49 748,707.521 748,714.999 C748,722.478 745.087,729.509 739.797,734.797 L739.797,734.797 Z M735.545,708.627 L720,725.087 L704.454,708.627 C703.696,707.823 702.43,707.788 701.627,708.545 C700.824,709.304 700.788,710.57 701.546,711.373 L718.546,729.373 C718.924,729.773 719.449,730 720,730 C720.55,730 721.076,729.773 721.454,729.373 L738.454,711.373 C739.212,710.57 739.176,709.304 738.373,708.545 C737.57,707.788 736.304,707.824 735.545,708.627 L735.545,708.627 Z" id="02"></path>
        </g>
    </g>
</svg>