<?xml version="1.0" encoding="UTF-8"?>
<svg width="44px" height="44px" viewBox="0 0 44 44" version="1.1" xmlns="http://www.w3.org/2000/svg" xmlns:xlink="http://www.w3.org/1999/xlink">
    <!-- Generator: Sketch 48.2 (47327) - http://www.bohemiancoding.com/sketch -->
    <title>spotify_alone</title>
    <desc>Created with Sketch.</desc>
    <defs></defs>
    <g id="Symbols" stroke="none" stroke-width="1" fill="none" fill-rule="evenodd">
        <g id="spotify_alone">
            <path d="M29.2006484,20.8294038 C25.1470088,18.2184545 18.3698302,17.9436177 14.5062051,19.2490924 C13.8728239,19.45522 13.2394427,19.0429648 13.0494284,18.4245821 C12.859414,17.7374901 13.2394427,17.0503982 13.8094858,16.8442706 C18.3064921,15.4013776 25.7170519,15.6762144 30.4040726,18.6994188 C30.9741157,19.0429648 31.16413,19.8674751 30.8474394,20.4858579 C30.5307488,20.9668222 29.7706914,21.1729498 29.2006484,20.8294038 M29.8331214,23.5445317 C29.5025894,23.9706085 28.9076319,24.1532128 28.4448871,23.8488722 C24.8751416,21.8402245 19.4544169,21.2315434 15.2897139,22.4489057 C14.7608627,22.5706419 14.1659051,22.3271694 14.0336923,21.8402245 C13.9014795,21.3532797 14.1659051,20.8054666 14.6947563,20.6837304 C19.5205233,19.344632 25.4700992,20.0141812 29.5686958,22.3271694 C29.9653342,22.5097738 30.1636534,23.1184549 29.8331214,23.5445317 M27.8937166,28.5501222 C27.6271039,28.9940049 27.1605316,29.1419657 26.7606125,28.846044 C23.6279127,26.7006113 19.6953748,26.2567286 15.0296518,27.4404157 C14.5630795,27.5883765 14.1631604,27.2184743 14.029854,26.7745917 C13.8965476,26.2567286 14.2298136,25.812846 14.6297327,25.6648851 C19.6953748,24.4072177 24.094485,24.9250807 27.5604507,27.2924548 C28.027023,27.5143961 28.0936762,28.1062396 27.8937166,28.5501222 M22,9 C14.85,9 9,14.85 9,22 C9,29.15 14.85,35 22,35 C29.15,35 35,29.15 35,22 C35,14.85 29.215,9 22,9" id="Spotify" fill="#FFFFFF" fill-rule="nonzero"></path>
            <g id="apple_logo">
                <g id="facebook-copy">
                    <rect id="Rectangle" x="0" y="0" width="44" height="44"></rect>
                    <circle id="Oval" stroke="#FFFFFF" stroke-width="2" cx="22" cy="22" r="21"></circle>
                </g>
            </g>
        </g>
    </g>
</svg>