<?xml version="1.0" encoding="UTF-8"?>
<svg width="64px" height="64px" viewBox="0 0 64 64" version="1.1" xmlns="http://www.w3.org/2000/svg" xmlns:xlink="http://www.w3.org/1999/xlink">
    <!-- Generator: Sketch 49.3 (51167) - http://www.bohemiancoding.com/sketch -->
    <title>01</title>
    <desc>Created with Sketch.</desc>
    <defs></defs>
    <g id="Page-1" stroke="none" stroke-width="1" fill="none" fill-rule="evenodd">
        <g id="Portada" transform="translate(-688.000000, -1473.000000)" fill="#B3D9EA">
            <path d="M720,1473 C711.452,1473 703.417,1476.329 697.374,1482.373 C691.329,1488.417 688,1496.452 688,1504.999 C688,1513.547 691.329,1521.583 697.373,1527.626 C703.417,1533.67 711.452,1536.999 720,1536.999 C728.547,1536.999 736.582,1533.67 742.625,1527.626 C748.67,1521.583 752,1513.547 752,1504.999 C752,1496.452 748.67,1488.417 742.626,1482.373 C736.582,1476.329 728.547,1473 720,1473 L720,1473 Z M739.797,1524.798 C734.509,1530.087 727.478,1532.999 720,1532.999 C712.521,1532.999 705.49,1530.087 700.202,1524.797 C694.913,1519.509 691.999,1512.478 691.999,1504.999 C691.999,1497.521 694.913,1490.49 700.202,1485.201 C705.49,1479.912 712.521,1477 720,1477 C727.478,1477 734.509,1479.912 739.797,1485.202 C745.087,1490.49 748,1497.521 748,1504.999 C748,1512.478 745.087,1519.509 739.797,1524.798 L739.797,1524.798 Z M721.454,1490.627 C720.698,1489.826 719.301,1489.826 718.545,1490.627 L701.546,1508.627 C700.787,1509.429 700.824,1510.695 701.627,1511.454 C702.43,1512.211 703.696,1512.175 704.454,1511.373 L720,1494.912 L735.545,1511.373 C735.939,1511.79 736.469,1512 737,1512 C737.493,1512 737.986,1511.818 738.372,1511.454 C739.176,1510.695 739.212,1509.429 738.453,1508.627 L721.454,1490.627 L721.454,1490.627 Z" id="01"></path>
        </g>
    </g>
</svg>